<?xml version="1.0" encoding="utf-8"?>
<!-- Generator: Adobe Illustrator 25.0.1, SVG Export Plug-In . SVG Version: 6.00 Build 0)  -->
<svg version="1.1" id="Calque_1" xmlns="http://www.w3.org/2000/svg" xmlns:xlink="http://www.w3.org/1999/xlink" x="0px" y="0px"
	 viewBox="0 0 2986.1 2413.3" style="enable-background:new 0 0 2986.1 2413.3;" xml:space="preserve">
<style type="text/css">
	.st0{fill:#FEC900;}
</style>
<g>
	<g>
		<path class="st0" d="M878.1,867.9c-159.5,0-277.7,46.7-349.2,93.5l38.5-376.7H1296V37.6l-244.7,16.5l-35.7,151.2
			c-5.5,19.2-11,33-35.7,33H262.2l-60.5,943L473.9,1294c66-68.7,154-118.2,263.9-118.2c104.5,0,255.7,41.2,255.7,266.7
			c0,195.2-132,291.4-296.9,291.4c-195.2,0-329.9-79.7-437.2-187l-220,250.2C185.1,1953.8,429.8,2050,732.2,2050
			c442.7,0,676.4-283.2,676.4-621.4C1408.7,1054.9,1199.8,867.9,878.1,867.9 M2503,1019.1c0,384.9-77,541.6-280.4,541.6
			c-214.5,0-283.2-159.5-283.2-530.6c0-384.9,85.2-533.4,291.4-533.4C2434.3,496.7,2503,642.4,2503,1019.1 M2942.9,1002.6
			c0-478.4-159.5-805.6-703.8-805.6s-742.3,329.9-742.3,827.6c0,480.7,150.5,810.9,663.1,829.5v117.1h-191.6V2166h191.6v200.4h194.8
			V2166h191.6v-194.8h-191.6v-125.5C2790.1,1788.3,2942.9,1467.3,2942.9,1002.6"/>
	</g>
</g>
</svg>
